<mxfile host="65bd71144e">
    <diagram id="23k9uy0YEaFbfAensMAj" name="Page-1">
        <mxGraphModel dx="1848" dy="1795" grid="1" gridSize="10" guides="1" tooltips="1" connect="1" arrows="1" fold="1" page="1" pageScale="1" pageWidth="827" pageHeight="1169" math="0" shadow="0">
            <root>
                <mxCell id="0"/>
                <mxCell id="1" parent="0"/>
                <mxCell id="lMkkt_V8vPEnHozAb_V0-29" style="edgeStyle=orthogonalEdgeStyle;rounded=0;orthogonalLoop=1;jettySize=auto;html=1;entryX=-0.014;entryY=0.12;entryDx=0;entryDy=0;entryPerimeter=0;exitX=1;exitY=0.25;exitDx=0;exitDy=0;curved=1;" parent="1" source="lMkkt_V8vPEnHozAb_V0-2" target="lMkkt_V8vPEnHozAb_V0-17" edge="1">
                    <mxGeometry relative="1" as="geometry"/>
                </mxCell>
                <mxCell id="lMkkt_V8vPEnHozAb_V0-2" value="start" style="swimlane;fontStyle=0;childLayout=stackLayout;horizontal=1;startSize=26;horizontalStack=0;resizeParent=1;resizeParentMax=0;resizeLast=0;collapsible=1;marginBottom=0;" parent="1" vertex="1">
                    <mxGeometry x="20" y="230" width="140" height="78" as="geometry"/>
                </mxCell>
                <mxCell id="lMkkt_V8vPEnHozAb_V0-3" value="pID: Number" style="text;strokeColor=none;fillColor=none;align=left;verticalAlign=top;spacingLeft=4;spacingRight=4;overflow=hidden;rotatable=0;points=[[0,0.5],[1,0.5]];portConstraint=eastwest;" parent="lMkkt_V8vPEnHozAb_V0-2" vertex="1">
                    <mxGeometry y="26" width="140" height="26" as="geometry"/>
                </mxCell>
                <mxCell id="2" value="rolls: number[][]" style="text;strokeColor=none;fillColor=none;align=left;verticalAlign=top;spacingLeft=4;spacingRight=4;overflow=hidden;rotatable=0;points=[[0,0.5],[1,0.5]];portConstraint=eastwest;" parent="lMkkt_V8vPEnHozAb_V0-2" vertex="1">
                    <mxGeometry y="52" width="140" height="26" as="geometry"/>
                </mxCell>
                <mxCell id="lMkkt_V8vPEnHozAb_V0-35" value="" style="edgeStyle=orthogonalEdgeStyle;curved=1;rounded=0;orthogonalLoop=1;jettySize=auto;html=1;entryX=0.5;entryY=0;entryDx=0;entryDy=0;exitX=0;exitY=0.25;exitDx=0;exitDy=0;" parent="1" source="lMkkt_V8vPEnHozAb_V0-6" target="lMkkt_V8vPEnHozAb_V0-2" edge="1">
                    <mxGeometry x="-0.5389" y="-13" relative="1" as="geometry">
                        <mxPoint as="offset"/>
                    </mxGeometry>
                </mxCell>
                <mxCell id="lMkkt_V8vPEnHozAb_V0-6" value="transition" style="swimlane;fontStyle=0;childLayout=stackLayout;horizontal=1;startSize=26;horizontalStack=0;resizeParent=1;resizeParentMax=0;resizeLast=0;collapsible=1;marginBottom=0;" parent="1" vertex="1">
                    <mxGeometry x="300" y="20" width="140" height="78" as="geometry">
                        <mxRectangle x="230" y="240" width="60" height="26" as="alternateBounds"/>
                    </mxGeometry>
                </mxCell>
                <mxCell id="lMkkt_V8vPEnHozAb_V0-7" value="pID: Number" style="text;strokeColor=none;fillColor=none;align=left;verticalAlign=top;spacingLeft=4;spacingRight=4;overflow=hidden;rotatable=0;points=[[0,0.5],[1,0.5]];portConstraint=eastwest;" parent="lMkkt_V8vPEnHozAb_V0-6" vertex="1">
                    <mxGeometry y="26" width="140" height="26" as="geometry"/>
                </mxCell>
                <mxCell id="7" value="rolls: number[][]" style="text;strokeColor=none;fillColor=none;align=left;verticalAlign=top;spacingLeft=4;spacingRight=4;overflow=hidden;rotatable=0;points=[[0,0.5],[1,0.5]];portConstraint=eastwest;" parent="lMkkt_V8vPEnHozAb_V0-6" vertex="1">
                    <mxGeometry y="52" width="140" height="26" as="geometry"/>
                </mxCell>
                <mxCell id="lMkkt_V8vPEnHozAb_V0-34" value="" style="edgeStyle=orthogonalEdgeStyle;curved=1;rounded=0;orthogonalLoop=1;jettySize=auto;html=1;entryX=1;entryY=0.25;entryDx=0;entryDy=0;exitX=0.75;exitY=0;exitDx=0;exitDy=0;" parent="1" source="lMkkt_V8vPEnHozAb_V0-15" target="lMkkt_V8vPEnHozAb_V0-6" edge="1">
                    <mxGeometry x="-0.6817" y="-20" relative="1" as="geometry">
                        <Array as="points">
                            <mxPoint x="705" y="40"/>
                        </Array>
                        <mxPoint as="offset"/>
                    </mxGeometry>
                </mxCell>
                <mxCell id="9" style="edgeStyle=orthogonalEdgeStyle;html=1;entryX=0.75;entryY=0;entryDx=0;entryDy=0;curved=1;" parent="1" source="lMkkt_V8vPEnHozAb_V0-15" target="lMkkt_V8vPEnHozAb_V0-2" edge="1">
                    <mxGeometry relative="1" as="geometry">
                        <Array as="points">
                            <mxPoint x="670" y="120"/>
                            <mxPoint x="125" y="120"/>
                        </Array>
                    </mxGeometry>
                </mxCell>
                <mxCell id="lMkkt_V8vPEnHozAb_V0-15" value="endturn" style="swimlane;fontStyle=0;childLayout=stackLayout;horizontal=1;startSize=26;horizontalStack=0;resizeParent=1;resizeParentMax=0;resizeLast=0;collapsible=1;marginBottom=0;" parent="1" vertex="1">
                    <mxGeometry x="600" y="240" width="140" height="78" as="geometry"/>
                </mxCell>
                <mxCell id="lMkkt_V8vPEnHozAb_V0-16" value="pID: Number" style="text;strokeColor=none;fillColor=none;align=left;verticalAlign=top;spacingLeft=4;spacingRight=4;overflow=hidden;rotatable=0;points=[[0,0.5],[1,0.5]];portConstraint=eastwest;" parent="lMkkt_V8vPEnHozAb_V0-15" vertex="1">
                    <mxGeometry y="26" width="140" height="26" as="geometry"/>
                </mxCell>
                <mxCell id="6" value="rolls: number[][]" style="text;strokeColor=none;fillColor=none;align=left;verticalAlign=top;spacingLeft=4;spacingRight=4;overflow=hidden;rotatable=0;points=[[0,0.5],[1,0.5]];portConstraint=eastwest;" parent="lMkkt_V8vPEnHozAb_V0-15" vertex="1">
                    <mxGeometry y="52" width="140" height="26" as="geometry"/>
                </mxCell>
                <mxCell id="lMkkt_V8vPEnHozAb_V0-30" style="edgeStyle=orthogonalEdgeStyle;curved=1;rounded=0;orthogonalLoop=1;jettySize=auto;html=1;entryX=0.014;entryY=0.12;entryDx=0;entryDy=0;entryPerimeter=0;exitX=1.007;exitY=0.082;exitDx=0;exitDy=0;exitPerimeter=0;" parent="1" source="lMkkt_V8vPEnHozAb_V0-17" target="lMkkt_V8vPEnHozAb_V0-21" edge="1">
                    <mxGeometry relative="1" as="geometry">
                        <mxPoint x="350" y="252" as="sourcePoint"/>
                    </mxGeometry>
                </mxCell>
                <mxCell id="lMkkt_V8vPEnHozAb_V0-43" style="edgeStyle=orthogonalEdgeStyle;rounded=0;orthogonalLoop=1;jettySize=auto;html=1;entryX=0.25;entryY=0;entryDx=0;entryDy=0;curved=1;" parent="1" source="lMkkt_V8vPEnHozAb_V0-17" target="lMkkt_V8vPEnHozAb_V0-15" edge="1">
                    <mxGeometry relative="1" as="geometry">
                        <Array as="points">
                            <mxPoint x="270" y="160"/>
                            <mxPoint x="635" y="160"/>
                        </Array>
                    </mxGeometry>
                </mxCell>
                <mxCell id="27" style="edgeStyle=orthogonalEdgeStyle;curved=1;html=1;entryX=0;entryY=0.25;entryDx=0;entryDy=0;" edge="1" parent="1" source="lMkkt_V8vPEnHozAb_V0-17" target="22">
                    <mxGeometry relative="1" as="geometry"/>
                </mxCell>
                <mxCell id="28" style="edgeStyle=orthogonalEdgeStyle;curved=1;html=1;entryX=0;entryY=0.25;entryDx=0;entryDy=0;exitX=1;exitY=0.5;exitDx=0;exitDy=0;" edge="1" parent="1" source="lMkkt_V8vPEnHozAb_V0-18" target="lMkkt_V8vPEnHozAb_V0-25">
                    <mxGeometry relative="1" as="geometry"/>
                </mxCell>
                <mxCell id="lMkkt_V8vPEnHozAb_V0-17" value="diceroll" style="swimlane;fontStyle=0;childLayout=stackLayout;horizontal=1;startSize=26;horizontalStack=0;resizeParent=1;resizeParentMax=0;resizeLast=0;collapsible=1;marginBottom=0;" parent="1" vertex="1">
                    <mxGeometry x="200" y="230" width="140" height="130" as="geometry"/>
                </mxCell>
                <mxCell id="lMkkt_V8vPEnHozAb_V0-18" value="pID: Number" style="text;strokeColor=none;fillColor=none;align=left;verticalAlign=top;spacingLeft=4;spacingRight=4;overflow=hidden;rotatable=0;points=[[0,0.5],[1,0.5]];portConstraint=eastwest;" parent="lMkkt_V8vPEnHozAb_V0-17" vertex="1">
                    <mxGeometry y="26" width="140" height="26" as="geometry"/>
                </mxCell>
                <mxCell id="3" value="rolls: number[][]" style="text;strokeColor=none;fillColor=none;align=left;verticalAlign=top;spacingLeft=4;spacingRight=4;overflow=hidden;rotatable=0;points=[[0,0.5],[1,0.5]];portConstraint=eastwest;" parent="lMkkt_V8vPEnHozAb_V0-17" vertex="1">
                    <mxGeometry y="52" width="140" height="26" as="geometry"/>
                </mxCell>
                <mxCell id="lMkkt_V8vPEnHozAb_V0-19" value="dice1: Number" style="text;strokeColor=none;fillColor=none;align=left;verticalAlign=top;spacingLeft=4;spacingRight=4;overflow=hidden;rotatable=0;points=[[0,0.5],[1,0.5]];portConstraint=eastwest;" parent="lMkkt_V8vPEnHozAb_V0-17" vertex="1">
                    <mxGeometry y="78" width="140" height="26" as="geometry"/>
                </mxCell>
                <mxCell id="lMkkt_V8vPEnHozAb_V0-20" value="dice2: Number" style="text;strokeColor=none;fillColor=none;align=left;verticalAlign=top;spacingLeft=4;spacingRight=4;overflow=hidden;rotatable=0;points=[[0,0.5],[1,0.5]];portConstraint=eastwest;" parent="lMkkt_V8vPEnHozAb_V0-17" vertex="1">
                    <mxGeometry y="104" width="140" height="26" as="geometry"/>
                </mxCell>
                <mxCell id="lMkkt_V8vPEnHozAb_V0-33" style="edgeStyle=orthogonalEdgeStyle;curved=1;rounded=0;orthogonalLoop=1;jettySize=auto;html=1;entryX=0;entryY=0.25;entryDx=0;entryDy=0;" parent="1" target="lMkkt_V8vPEnHozAb_V0-15" edge="1">
                    <mxGeometry relative="1" as="geometry">
                        <mxPoint x="530" y="193" as="sourcePoint"/>
                    </mxGeometry>
                </mxCell>
                <mxCell id="lMkkt_V8vPEnHozAb_V0-21" value="payrent" style="swimlane;fontStyle=0;childLayout=stackLayout;horizontal=1;startSize=26;horizontalStack=0;resizeParent=1;resizeParentMax=0;resizeLast=0;collapsible=1;marginBottom=0;" parent="1" vertex="1">
                    <mxGeometry x="390" y="180" width="140" height="130" as="geometry"/>
                </mxCell>
                <mxCell id="lMkkt_V8vPEnHozAb_V0-22" value="pID: Number" style="text;strokeColor=none;fillColor=none;align=left;verticalAlign=top;spacingLeft=4;spacingRight=4;overflow=hidden;rotatable=0;points=[[0,0.5],[1,0.5]];portConstraint=eastwest;" parent="lMkkt_V8vPEnHozAb_V0-21" vertex="1">
                    <mxGeometry y="26" width="140" height="26" as="geometry"/>
                </mxCell>
                <mxCell id="4" value="rolls: number[][]" style="text;strokeColor=none;fillColor=none;align=left;verticalAlign=top;spacingLeft=4;spacingRight=4;overflow=hidden;rotatable=0;points=[[0,0.5],[1,0.5]];portConstraint=eastwest;" parent="lMkkt_V8vPEnHozAb_V0-21" vertex="1">
                    <mxGeometry y="52" width="140" height="26" as="geometry"/>
                </mxCell>
                <mxCell id="lMkkt_V8vPEnHozAb_V0-23" value="property: PricedTileId" style="text;strokeColor=none;fillColor=none;align=left;verticalAlign=top;spacingLeft=4;spacingRight=4;overflow=hidden;rotatable=0;points=[[0,0.5],[1,0.5]];portConstraint=eastwest;" parent="lMkkt_V8vPEnHozAb_V0-21" vertex="1">
                    <mxGeometry y="78" width="140" height="26" as="geometry"/>
                </mxCell>
                <mxCell id="lMkkt_V8vPEnHozAb_V0-24" value="price: Number" style="text;strokeColor=none;fillColor=none;align=left;verticalAlign=top;spacingLeft=4;spacingRight=4;overflow=hidden;rotatable=0;points=[[0,0.5],[1,0.5]];portConstraint=eastwest;" parent="lMkkt_V8vPEnHozAb_V0-21" vertex="1">
                    <mxGeometry y="104" width="140" height="26" as="geometry"/>
                </mxCell>
                <mxCell id="lMkkt_V8vPEnHozAb_V0-25" value="unowned" style="swimlane;fontStyle=0;childLayout=stackLayout;horizontal=1;startSize=26;horizontalStack=0;resizeParent=1;resizeParentMax=0;resizeLast=0;collapsible=1;marginBottom=0;" parent="1" vertex="1">
                    <mxGeometry x="390" y="320" width="140" height="104" as="geometry"/>
                </mxCell>
                <mxCell id="lMkkt_V8vPEnHozAb_V0-26" value="pID: Number" style="text;strokeColor=none;fillColor=none;align=left;verticalAlign=top;spacingLeft=4;spacingRight=4;overflow=hidden;rotatable=0;points=[[0,0.5],[1,0.5]];portConstraint=eastwest;" parent="lMkkt_V8vPEnHozAb_V0-25" vertex="1">
                    <mxGeometry y="26" width="140" height="26" as="geometry"/>
                </mxCell>
                <mxCell id="5" value="rolls: number[][]" style="text;strokeColor=none;fillColor=none;align=left;verticalAlign=top;spacingLeft=4;spacingRight=4;overflow=hidden;rotatable=0;points=[[0,0.5],[1,0.5]];portConstraint=eastwest;" parent="lMkkt_V8vPEnHozAb_V0-25" vertex="1">
                    <mxGeometry y="52" width="140" height="26" as="geometry"/>
                </mxCell>
                <mxCell id="lMkkt_V8vPEnHozAb_V0-27" value="property: PricedTileId" style="text;strokeColor=none;fillColor=none;align=left;verticalAlign=top;spacingLeft=4;spacingRight=4;overflow=hidden;rotatable=0;points=[[0,0.5],[1,0.5]];portConstraint=eastwest;" parent="lMkkt_V8vPEnHozAb_V0-25" vertex="1">
                    <mxGeometry y="78" width="140" height="26" as="geometry"/>
                </mxCell>
                <mxCell id="lMkkt_V8vPEnHozAb_V0-32" style="edgeStyle=orthogonalEdgeStyle;curved=1;rounded=0;orthogonalLoop=1;jettySize=auto;html=1;entryX=0;entryY=0.25;entryDx=0;entryDy=0;exitX=1.007;exitY=0.135;exitDx=0;exitDy=0;exitPerimeter=0;" parent="1" source="lMkkt_V8vPEnHozAb_V0-25" target="lMkkt_V8vPEnHozAb_V0-15" edge="1">
                    <mxGeometry relative="1" as="geometry"/>
                </mxCell>
                <mxCell id="lMkkt_V8vPEnHozAb_V0-37" style="rounded=0;orthogonalLoop=1;jettySize=auto;html=1;entryX=0.75;entryY=0;entryDx=0;entryDy=0;fillColor=#d5e8d4;strokeColor=#82b366;" parent="1" source="lMkkt_V8vPEnHozAb_V0-36" target="lMkkt_V8vPEnHozAb_V0-15" edge="1">
                    <mxGeometry relative="1" as="geometry"/>
                </mxCell>
                <mxCell id="lMkkt_V8vPEnHozAb_V0-36" value="When end turn button is pressed, switch to transition and move pID to next value in roll order" style="shape=callout;whiteSpace=wrap;html=1;perimeter=calloutPerimeter;fillColor=#d5e8d4;strokeColor=#82b366;" parent="1" vertex="1">
                    <mxGeometry x="690" y="26" width="120" height="124" as="geometry"/>
                </mxCell>
                <mxCell id="lMkkt_V8vPEnHozAb_V0-39" style="edgeStyle=none;rounded=0;orthogonalLoop=1;jettySize=auto;html=1;entryX=0.75;entryY=0;entryDx=0;entryDy=0;fillColor=#d5e8d4;strokeColor=#82b366;exitX=0;exitY=0;exitDx=0;exitDy=47;exitPerimeter=0;" parent="1" source="rjqsmmEBE-RS8cDuXn0C-2" target="lMkkt_V8vPEnHozAb_V0-6" edge="1">
                    <mxGeometry relative="1" as="geometry">
                        <mxPoint x="160" y="38.90000000000009" as="sourcePoint"/>
                    </mxGeometry>
                </mxCell>
                <mxCell id="lMkkt_V8vPEnHozAb_V0-41" style="edgeStyle=none;rounded=0;orthogonalLoop=1;jettySize=auto;html=1;entryX=0.268;entryY=0.981;entryDx=0;entryDy=0;fillColor=#d5e8d4;strokeColor=#82b366;entryPerimeter=0;" parent="1" source="lMkkt_V8vPEnHozAb_V0-40" target="2" edge="1">
                    <mxGeometry relative="1" as="geometry"/>
                </mxCell>
                <mxCell id="lMkkt_V8vPEnHozAb_V0-40" value="After user presses the roll dice button, switch to diceroll with the server computed dice values" style="shape=callout;whiteSpace=wrap;html=1;perimeter=calloutPerimeter;fillColor=#d5e8d4;strokeColor=#82b366;fontColor=#191919;" parent="1" vertex="1">
                    <mxGeometry x="20" y="340" width="120" height="124" as="geometry"/>
                </mxCell>
                <mxCell id="lMkkt_V8vPEnHozAb_V0-44" style="rounded=0;orthogonalLoop=1;jettySize=auto;html=1;entryX=0.779;entryY=1.135;entryDx=0;entryDy=0;entryPerimeter=0;fillColor=#d5e8d4;strokeColor=#82b366;" parent="1" source="lMkkt_V8vPEnHozAb_V0-42" target="lMkkt_V8vPEnHozAb_V0-20" edge="1">
                    <mxGeometry relative="1" as="geometry"/>
                </mxCell>
                <mxCell id="lMkkt_V8vPEnHozAb_V0-42" value="When hero lands on the tile after moving around the board,&amp;nbsp;switch to payrent if it is an owned property that isn't mortgaged&lt;br&gt;if it is property, utility or railroad and is unowned, switch to unowned, if landed on a card space go to card_prompt, otherwise switch directly to endturn" style="shape=callout;whiteSpace=wrap;html=1;perimeter=calloutPerimeter;fillColor=#d5e8d4;strokeColor=#82b366;fontColor=#080808;" parent="1" vertex="1">
                    <mxGeometry x="90" y="464" width="240" height="146" as="geometry"/>
                </mxCell>
                <mxCell id="rjqsmmEBE-RS8cDuXn0C-1" value="When end turn button is pressed, switch to transition and move pID to next value in roll order when not doubles, if doubles and they did not go to jail, go to start" style="shape=callout;whiteSpace=wrap;html=1;perimeter=calloutPerimeter;fillColor=#d5e8d4;strokeColor=#82b366;fontColor=#080808;" parent="1" vertex="1">
                    <mxGeometry x="690" y="26" width="120" height="174" as="geometry"/>
                </mxCell>
                <mxCell id="rjqsmmEBE-RS8cDuXn0C-2" value="3 seconds after moving hero, switch to start" style="shape=callout;whiteSpace=wrap;html=1;perimeter=calloutPerimeter;fillColor=#d5e8d4;strokeColor=#82b366;fontColor=#080808;" parent="1" vertex="1">
                    <mxGeometry x="440" y="-140" width="120" height="124" as="geometry"/>
                </mxCell>
                <mxCell id="16" style="edgeStyle=orthogonalEdgeStyle;curved=1;html=1;entryX=0;entryY=-0.096;entryDx=0;entryDy=0;entryPerimeter=0;" parent="1" source="10" target="2" edge="1">
                    <mxGeometry relative="1" as="geometry"/>
                </mxCell>
                <mxCell id="19" style="edgeStyle=orthogonalEdgeStyle;html=1;entryX=0.25;entryY=0;entryDx=0;entryDy=0;strokeColor=#FFFFFF;curved=1;" parent="1" source="10" target="lMkkt_V8vPEnHozAb_V0-17" edge="1">
                    <mxGeometry relative="1" as="geometry"/>
                </mxCell>
                <mxCell id="10" value="jailed" style="swimlane;fontStyle=0;childLayout=stackLayout;horizontal=1;startSize=26;fillColor=none;horizontalStack=0;resizeParent=1;resizeParentMax=0;resizeLast=0;collapsible=1;marginBottom=0;" parent="1" vertex="1">
                    <mxGeometry x="-110" y="96" width="140" height="78" as="geometry"/>
                </mxCell>
                <mxCell id="11" value="pID: Number" style="text;strokeColor=none;fillColor=none;align=left;verticalAlign=top;spacingLeft=4;spacingRight=4;overflow=hidden;rotatable=0;points=[[0,0.5],[1,0.5]];portConstraint=eastwest;" parent="10" vertex="1">
                    <mxGeometry y="26" width="140" height="26" as="geometry"/>
                </mxCell>
                <mxCell id="14" value="rolls: number[][]" style="text;strokeColor=none;fillColor=none;align=left;verticalAlign=top;spacingLeft=4;spacingRight=4;overflow=hidden;rotatable=0;points=[[0,0.5],[1,0.5]];portConstraint=eastwest;" parent="10" vertex="1">
                    <mxGeometry y="52" width="140" height="26" as="geometry"/>
                </mxCell>
                <mxCell id="15" style="edgeStyle=orthogonalEdgeStyle;curved=1;html=1;entryX=0.5;entryY=0;entryDx=0;entryDy=0;exitX=0.25;exitY=0;exitDx=0;exitDy=0;" parent="1" source="lMkkt_V8vPEnHozAb_V0-6" target="10" edge="1">
                    <mxGeometry relative="1" as="geometry"/>
                </mxCell>
                <mxCell id="18" style="html=1;entryX=0.5;entryY=1.135;entryDx=0;entryDy=0;entryPerimeter=0;fillColor=#60a917;strokeColor=#82B366;" parent="1" source="17" target="14" edge="1">
                    <mxGeometry relative="1" as="geometry"/>
                </mxCell>
                <mxCell id="17" value="If user pays to get out of jail or uses get out of jail free card, just transition back to start (and set location to 10 and jailed to 0)" style="shape=callout;whiteSpace=wrap;html=1;perimeter=calloutPerimeter;fillColor=#d5e8d4;strokeColor=#82b366;fontColor=#191919;" parent="1" vertex="1">
                    <mxGeometry x="-180" y="260" width="120" height="124" as="geometry"/>
                </mxCell>
                <mxCell id="21" style="html=1;entryX=1;entryY=0.5;entryDx=0;entryDy=0;strokeColor=#82B366;" parent="1" source="20" target="11" edge="1">
                    <mxGeometry relative="1" as="geometry"/>
                </mxCell>
                <mxCell id="20" value="After user presses the roll dice button with server computed values" style="shape=callout;whiteSpace=wrap;html=1;perimeter=calloutPerimeter;fillColor=#d5e8d4;strokeColor=#82b366;fontColor=#191919;" parent="1" vertex="1">
                    <mxGeometry x="40" y="-110" width="120" height="124" as="geometry"/>
                </mxCell>
                <mxCell id="32" style="edgeStyle=orthogonalEdgeStyle;curved=1;html=1;entryX=0;entryY=0.5;entryDx=0;entryDy=0;" edge="1" parent="1" source="22" target="30">
                    <mxGeometry relative="1" as="geometry"/>
                </mxCell>
                <mxCell id="22" value="card_prompt" style="swimlane;fontStyle=0;childLayout=stackLayout;horizontal=1;startSize=26;horizontalStack=0;resizeParent=1;resizeParentMax=0;resizeLast=0;collapsible=1;marginBottom=0;" vertex="1" parent="1">
                    <mxGeometry x="390" y="440" width="140" height="78" as="geometry"/>
                </mxCell>
                <mxCell id="23" value="pID: Number" style="text;strokeColor=none;fillColor=none;align=left;verticalAlign=top;spacingLeft=4;spacingRight=4;overflow=hidden;rotatable=0;points=[[0,0.5],[1,0.5]];portConstraint=eastwest;" vertex="1" parent="22">
                    <mxGeometry y="26" width="140" height="26" as="geometry"/>
                </mxCell>
                <mxCell id="24" value="rolls: number[][]" style="text;strokeColor=none;fillColor=none;align=left;verticalAlign=top;spacingLeft=4;spacingRight=4;overflow=hidden;rotatable=0;points=[[0,0.5],[1,0.5]];portConstraint=eastwest;" vertex="1" parent="22">
                    <mxGeometry y="52" width="140" height="26" as="geometry"/>
                </mxCell>
                <mxCell id="33" style="edgeStyle=orthogonalEdgeStyle;curved=1;html=1;entryX=0.357;entryY=1;entryDx=0;entryDy=0;entryPerimeter=0;" edge="1" parent="1" source="29" target="6">
                    <mxGeometry relative="1" as="geometry"/>
                </mxCell>
                <mxCell id="34" style="edgeStyle=orthogonalEdgeStyle;curved=1;html=1;entryX=1;entryY=0.5;entryDx=0;entryDy=0;exitX=0.121;exitY=0.019;exitDx=0;exitDy=0;fillColor=#dae8fc;strokeColor=#6c8ebf;gradientColor=#7ea6e0;exitPerimeter=0;" edge="1" parent="1" source="29" target="5">
                    <mxGeometry relative="1" as="geometry"/>
                </mxCell>
                <mxCell id="35" style="edgeStyle=orthogonalEdgeStyle;curved=1;html=1;entryX=1;entryY=0.5;entryDx=0;entryDy=0;exitX=0.25;exitY=0;exitDx=0;exitDy=0;fillColor=#dae8fc;strokeColor=#6c8ebf;gradientColor=#7ea6e0;" edge="1" parent="1" source="29" target="lMkkt_V8vPEnHozAb_V0-23">
                    <mxGeometry relative="1" as="geometry"/>
                </mxCell>
                <mxCell id="39" style="edgeStyle=orthogonalEdgeStyle;html=1;entryX=1.007;entryY=0.128;entryDx=0;entryDy=0;entryPerimeter=0;curved=1;strokeColor=#6c8ebf;exitX=0;exitY=0.25;exitDx=0;exitDy=0;fillColor=#dae8fc;gradientColor=#7ea6e0;" edge="1" parent="1" source="29" target="22">
                    <mxGeometry relative="1" as="geometry">
                        <mxPoint x="550" y="450" as="targetPoint"/>
                        <Array as="points">
                            <mxPoint x="580" y="450"/>
                        </Array>
                    </mxGeometry>
                </mxCell>
                <mxCell id="29" value="card_result" style="swimlane;fontStyle=0;childLayout=stackLayout;horizontal=1;startSize=26;horizontalStack=0;resizeParent=1;resizeParentMax=0;resizeLast=0;collapsible=1;marginBottom=0;" vertex="1" parent="1">
                    <mxGeometry x="580" y="440" width="140" height="78" as="geometry"/>
                </mxCell>
                <mxCell id="30" value="pID: Number" style="text;strokeColor=none;fillColor=none;align=left;verticalAlign=top;spacingLeft=4;spacingRight=4;overflow=hidden;rotatable=0;points=[[0,0.5],[1,0.5]];portConstraint=eastwest;" vertex="1" parent="29">
                    <mxGeometry y="26" width="140" height="26" as="geometry"/>
                </mxCell>
                <mxCell id="31" value="card: CardAction" style="text;strokeColor=none;fillColor=none;align=left;verticalAlign=top;spacingLeft=4;spacingRight=4;overflow=hidden;rotatable=0;points=[[0,0.5],[1,0.5]];portConstraint=eastwest;" vertex="1" parent="29">
                    <mxGeometry y="52" width="140" height="26" as="geometry"/>
                </mxCell>
                <mxCell id="37" style="html=1;fillColor=#60a917;strokeColor=#82B366;" edge="1" parent="1" source="36" target="24">
                    <mxGeometry relative="1" as="geometry"/>
                </mxCell>
                <mxCell id="36" value="Prompt user and switch to card_result after user flips the card" style="shape=callout;whiteSpace=wrap;html=1;perimeter=calloutPerimeter;fillColor=#d5e8d4;strokeColor=#82b366;fontColor=#080808;" vertex="1" parent="1">
                    <mxGeometry x="390" y="570" width="120" height="110" as="geometry"/>
                </mxCell>
                <mxCell id="40" style="html=1;entryX=0.593;entryY=1;entryDx=0;entryDy=0;entryPerimeter=0;strokeColor=#82B366;" edge="1" parent="1" source="38" target="31">
                    <mxGeometry relative="1" as="geometry"/>
                </mxCell>
                <mxCell id="38" value="If card action requires moving to a new tile, go to payrent / unowned / card_prompt after moving to destination.&lt;br&gt;&lt;br&gt;Otherwise only move to endturn after user accepts a dialog box confirming the user acknowledged the effect." style="shape=callout;whiteSpace=wrap;html=1;perimeter=calloutPerimeter;fillColor=#d5e8d4;strokeColor=#82b366;fontColor=#080808;" vertex="1" parent="1">
                    <mxGeometry x="560" y="550" width="220" height="150" as="geometry"/>
                </mxCell>
            </root>
        </mxGraphModel>
    </diagram>
</mxfile>